<?xml version="1.0" encoding="utf-8"?>
<!-- Generator: Adobe Illustrator 25.1.0, SVG Export Plug-In . SVG Version: 6.00 Build 0)  -->
<svg version="1.1" id="레이어_1" xmlns="http://www.w3.org/2000/svg" xmlns:xlink="http://www.w3.org/1999/xlink" x="0px"
	 y="0px" viewBox="0 0 84.6 60.6" style="enable-background:new 0 0 84.6 60.6;" xml:space="preserve">
<style type="text/css">
	.st0{fill:#999999;}
</style>
<g>
	<g>
		<path class="st0" d="M7.2,34.7c23.8,0.2,47.6,1.8,71.3-0.1c5.4-0.4,5.4-8.8,0-8.4C54.8,28.1,31,26.5,7.2,26.3
			C1.8,26.2,1.8,34.6,7.2,34.7L7.2,34.7z"/>
	</g>
</g>
<g>
	<g>
		<path class="st0" d="M56.4,12.2c3.4,2.6,6.7,5.4,9.7,8.5c1.5,1.6,3,3.3,4.4,5.2c0.9,1.2,3.5,4,3.7,5.3c0.4,2.6-4.5,7.4-6.5,9.4
			c-3.5,3.5-7.4,6.5-11.3,9.5c-4.2,3.2-0.1,10.5,4.2,7.3c5.1-3.9,10.3-7.8,14.6-12.5c3.2-3.5,8.1-9.3,7.5-14.4
			c-0.2-2.5-1.9-4.2-3.3-6.1c-1.7-2.5-3.4-4.9-5.4-7.2c-4-4.6-8.6-8.5-13.5-12.1C56.3,1.7,52.1,9,56.4,12.2L56.4,12.2z"/>
	</g>
</g>
</svg>
