<?xml version="1.0" encoding="utf-8"?>
<!-- Generator: Adobe Illustrator 25.1.0, SVG Export Plug-In . SVG Version: 6.00 Build 0)  -->
<svg version="1.1" id="레이어_1" xmlns="http://www.w3.org/2000/svg" xmlns:xlink="http://www.w3.org/1999/xlink" x="0px"
	 y="0px" viewBox="0 0 44.2 65.7" style="enable-background:new 0 0 44.2 65.7;" xml:space="preserve">
<style type="text/css">
	.st0{fill:#FFD62C;}
</style>
<g>
	<g>
		<path class="st0" d="M1.6,50.6c4,4.9,8.9,8.8,13.3,13.4c1.4,1.4,3.7,1.3,5.1,0c4.9-4.4,9.6-9,14.4-13.4c3.4-3.1-1.7-8.2-5.1-5.1
			c-4.9,4.4-9.6,9-14.4,13.4c1.7,0,3.4,0,5.1,0c-4.4-4.6-9.3-8.5-13.3-13.4C3.8,42-1.3,47.1,1.6,50.6L1.6,50.6z"/>
	</g>
</g>
<g>
	<g>
		<path class="st0" d="M20.9,60.5c-1.9-12.5-1.3-25.8,3.8-37.6c3-6.9,8.1-14.9,16.1-16c4.6-0.6,2.6-7.6-1.9-6.9
			c-9.8,1.3-16.6,10.8-20.4,19.1c-6.1,13.6-6.8,28.7-4.6,43.3C14.7,67,21.6,65,20.9,60.5L20.9,60.5z"/>
	</g>
</g>
</svg>
