<?xml version="1.0" encoding="utf-8"?>
<!-- Generator: Adobe Illustrator 25.0.1, SVG Export Plug-In . SVG Version: 6.00 Build 0)  -->
<svg version="1.1" id="레이어_1" xmlns="http://www.w3.org/2000/svg" xmlns:xlink="http://www.w3.org/1999/xlink" x="0px"
	 y="0px" viewBox="0 0 198.2 154" style="enable-background:new 0 0 198.2 154;" xml:space="preserve">
<style type="text/css">
	.st0{fill:#CBC0AE;}
	.st1{fill:#777674;}
	.st2{fill:#C6B0BA;}
	.st3{fill:#1C1B20;}
</style>
<g>
	<path class="st0" d="M191.6,105.4C191.6,105.4,191.6,105.4,191.6,105.4L166.9,93l-11.5,61h25.3l16.3-32.6
		C199.9,115.5,197.5,108.3,191.6,105.4z"/>
	<polygon class="st0" points="0,141.5 0,154 66.9,154 0.2,141.5 	"/>
</g>
<path class="st1" d="M165.5,35.2L142,30.7l7.7,53.7l3.3,23.1c0.9,6.6-3.6,12.6-10.2,13.6L0.2,141.4L67,154h88.5l11.5-61l8.2-43.8
	C176.4,42.7,172.1,36.4,165.5,35.2C165.5,35.2,165.5,35.2,165.5,35.2z"/>
<path class="st2" d="M153,107.5l-3.3-23.1L142,30.7L137.6,0h-45l13.9,24.1l17.2,29.8c3.1,5.4,1.6,12.2-3.5,15.8
	c-0.3,0.2-0.6,0.4-0.9,0.6L0,139.1v2.3h0.2L142.7,121C149.3,120.1,153.9,114.1,153,107.5z"/>
<path class="st3" d="M123.7,53.8l-17.2-29.8L92.6,0H0v139.1l119.3-68.9c0.3-0.2,0.6-0.4,0.9-0.6C125.2,66.1,126.8,59.2,123.7,53.8z"
	/>
</svg>
