<?xml version="1.0" encoding="utf-8"?>
<!-- Generator: Adobe Illustrator 25.0.1, SVG Export Plug-In . SVG Version: 6.00 Build 0)  -->
<svg version="1.1" id="레이어_1" xmlns="http://www.w3.org/2000/svg" xmlns:xlink="http://www.w3.org/1999/xlink" x="0px"
	 y="0px" viewBox="0 0 198.3 154" style="enable-background:new 0 0 198.3 154;" xml:space="preserve">
<style type="text/css">
	.st0{fill:#1C1B20;}
	.st1{fill:#C39688;}
	.st2{fill:#BAC5C8;}
	.st3{fill:#F1F1F1;}
</style>
<g>
	<path class="st0" d="M191.1,105.9C191.1,105.9,191.1,105.9,191.1,105.9l-24.7-12.4l-11.5,61h25.3l16.3-32.6
		C199.5,116,197.1,108.8,191.1,105.9z"/>
	<polygon class="st0" points="-0.5,142 -0.5,154.5 66.5,154.5 -0.3,142 	"/>
</g>
<path class="st1" d="M165.1,35.7l-23.5-4.4l7.7,53.7l3.3,23.1c0.9,6.6-3.6,12.6-10.2,13.6L-0.3,141.9l66.8,12.6H155l11.5-61
	l8.2-43.8C175.9,43.2,171.6,36.9,165.1,35.7C165.1,35.7,165.1,35.7,165.1,35.7z"/>
<path class="st2" d="M152.5,108l-3.3-23.1l-7.7-53.7l-4.4-30.7h-45L106,24.6l17.2,29.8c3.1,5.4,1.6,12.2-3.5,15.8
	c-0.3,0.2-0.6,0.4-0.9,0.6L-0.5,139.6v2.3h0.2l142.6-20.4C148.9,120.6,153.4,114.6,152.5,108z"/>
<path class="st3" d="M123.2,54.3L106,24.6L92.1,0.5H-0.5v139.1l119.3-68.9c0.3-0.2,0.6-0.4,0.9-0.6
	C124.8,66.6,126.3,59.7,123.2,54.3z"/>
</svg>
