<svg xmlns="http://www.w3.org/2000/svg" viewBox="0 0 198.22 154"><defs><style>.cls-1{fill:#ffc5c4;}.cls-2{fill:#ff524b;}.cls-3{fill:#a11671;}.cls-4{fill:#4e0942;}</style></defs><g id="레이어_2" data-name="레이어 2"><g id="레이어_2-2" data-name="레이어 2"><path class="cls-1" d="M191.59,105.35,166.88,93l-11.46,61h25.26L197,121.45A12,12,0,0,0,191.59,105.35Z"/><polygon class="cls-1" points="0 141.48 0 154 66.96 154 0.2 141.46 0 141.48"/><path class="cls-2" d="M165.54,35.16,142,30.73l7.67,53.65L153,107.49a12,12,0,0,1-10.18,13.57L.2,141.45,67,154h88.46l11.46-61,8.24-43.83A12,12,0,0,0,165.54,35.16Z"/><polygon class="cls-3" points="0 141.48 0.2 141.46 0 141.42 0 141.48"/><path class="cls-3" d="M153,107.49l-3.31-23.11L142,30.73,137.58,0h-45l13.89,24.06,17.19,29.78a12,12,0,0,1-3.5,15.81c-.29.2-.58.4-.89.58L0,139.1v2.32l.2,0,142.57-20.39A12,12,0,0,0,153,107.49Z"/><path class="cls-4" d="M123.68,53.84,106.49,24.06,92.6,0H0V139.1L119.29,70.23c.31-.18.6-.38.89-.58A12,12,0,0,0,123.68,53.84Z"/></g></g></svg>