<svg xmlns="http://www.w3.org/2000/svg" viewBox="0 0 602.63 152"><defs><style>.cls-1{fill:none;}.cls-2{fill:#f8f4e8;}</style></defs><g id="레이어_2" data-name="레이어 2"><g id="레이어_2-2" data-name="레이어 2"><path class="cls-1" d="M139,117.09c1.77-1.54,3.55-3.06,5.33-4.6a262.3,262.3,0,0,1-41.81-16.15c-2-1-3.92-2-5.83-3.09C68.23,110.36,41,129.3,16.54,152h84.15Q119.49,134.17,139,117.09Z"/><path class="cls-1" d="M160.2,44.35c10.94-5.76,21.88-11.48,32.79-17.29-5.19-.8-10.39-1.45-15.56-1.87-6-.5-14.46-1.21-19.57,2.82-5.44,4.29-1.06,11.8,2.13,16.08Z"/><path class="cls-1" d="M65.77,39.08c6.48,16.64,15.78,30.43,30.89,40.18C114,69,131.7,59.43,149.51,50a37.71,37.71,0,0,1-4.92-9.43c-4.72-13.57,4.69-24.72,18-26.92,15.31-2.54,31.79,1.67,46.81,4.6C220.2,12.33,231,6.28,241.59,0H59.53C53.12,10.67,61.9,29.15,65.77,39.08Z"/><path class="cls-1" d="M252.44,28Q272.65,13.69,293.3,0H264.63c-12.18,7.66-24.58,15-37.13,22Q240,24.74,252.44,28Z"/><path class="cls-1" d="M274.6,34.43a6.7,6.7,0,0,1,1.75.28c58.69,17.85,119.8,15.51,179,1.49A890.59,890.59,0,0,0,571.23,0H315.15q-24.21,15.68-47.86,32.19C269.65,32.91,272.12,33.65,274.6,34.43Z"/><path class="cls-1" d="M175.44,73c-5.77-4.51-12.05-8.83-17.57-13.81-16.5,8.72-32.95,17.57-49.08,26.9,12.13,6,25.09,10.42,38,14.46,2.58.81,5.41,1.76,8.39,2.67q13.9-11.76,28.14-23.15A80.82,80.82,0,0,0,175.44,73Z"/><path class="cls-1" d="M169.64,106.69c6.26.88,12.43.66,17.65-1.9,7.19-3.53,6.67-9.43,3.36-15.29Q180.06,98,169.64,106.69Z"/><path class="cls-1" d="M211.47,30.82C197.42,38.44,183.2,45.88,169,53.35c7.78,6.55,16.8,11.84,24,19.08q23-18.11,46.74-35.27c-9.12-2.26-18.42-4.56-27.78-6.56Z"/><path class="cls-2" d="M455.37,36.2c-59.22,14-120.33,16.36-179-1.49a6.7,6.7,0,0,0-1.75-.28c-2.48-.78-5-1.52-7.31-2.24Q290.93,15.68,315.15,0H293.3q-20.64,13.7-40.86,28Q240,24.73,227.5,22c12.55-7,24.95-14.32,37.13-22h-23C231,6.28,220.2,12.33,209.36,18.24c-15-2.93-31.5-7.14-46.81-4.6-13.27,2.2-22.68,13.35-18,26.92A37.71,37.71,0,0,0,149.51,50C131.7,59.43,114,69,96.66,79.26,81.55,69.51,72.25,55.72,65.77,39.08,61.9,29.15,53.12,10.67,59.53,0H47.05a37,37,0,0,0-.79,18.31C47.89,26.77,51.33,35,54.48,43A122.48,122.48,0,0,0,65,64.61,80.73,80.73,0,0,0,85.43,86C74.73,92.56,64.2,99.4,53.9,106.63A420.59,420.59,0,0,0,1.48,149.76,6,6,0,0,0,0,152H16.54C41,129.3,68.23,110.36,96.68,93.25c1.91,1.07,3.86,2.1,5.83,3.09a262.3,262.3,0,0,0,41.81,16.15c-1.78,1.54-3.56,3.06-5.33,4.6q-19.52,17.06-38.3,34.91h17.5q19.65-18.27,40.06-35.68c12.1,2.91,26.6,4.73,37.15-2.41,11.46-7.75,10.64-21.26,4.77-32Q227,60.84,254.77,41c4.58,1.24,9,2.42,13.48,4,5.64,2,8.77,3.21,13.44,3.73q7.94,2.16,15.94,3.86c1.79.66,3.27,1.07,3.95.81C345.22,62.09,390,61,434,52.94c49.15-9,97.46-24.89,144-43q12.38-4.83,24.63-10h-31.4A890.59,890.59,0,0,1,455.37,36.2ZM157.86,28c5.11-4,13.54-3.32,19.57-2.82,5.17.42,10.37,1.07,15.56,1.87-10.91,5.81-21.85,11.53-32.79,17.29l-.21-.26C156.8,39.81,152.42,32.3,157.86,28Zm-2.71,75.22c-3-.91-5.81-1.86-8.39-2.67-12.88-4-25.84-8.43-38-14.46,16.13-9.33,32.58-18.18,49.08-26.9,5.52,5,11.8,9.3,17.57,13.81a80.82,80.82,0,0,1,7.85,7.07Q169.07,91.47,155.15,103.23Zm32.14,1.56c-5.22,2.56-11.39,2.78-17.65,1.9q10.43-8.7,21-17.19C194,95.36,194.48,101.26,187.29,104.79Zm5.64-32.36c-7.16-7.24-16.18-12.53-24-19.08,14.23-7.47,28.45-14.91,42.5-22.53l.42-.22c9.36,2,18.66,4.3,27.78,6.56Q216,54.34,192.93,72.43Z"/></g></g></svg>