<?xml version="1.0" encoding="utf-8"?>
<!-- Generator: Adobe Illustrator 25.0.1, SVG Export Plug-In . SVG Version: 6.00 Build 0)  -->
<svg version="1.1" id="레이어_1" xmlns="http://www.w3.org/2000/svg" xmlns:xlink="http://www.w3.org/1999/xlink" x="0px"
	 y="0px" viewBox="0 0 190.1 151.5" style="enable-background:new 0 0 190.1 151.5;" xml:space="preserve">
<style type="text/css">
	.st0{fill:#FFFFFF;}
</style>
<path class="st0" d="M190.1,0.9V0h-40.4l0,0c-5.2,1.4-10.6,2.9-15.8,4.4c0.2-0.4,0.3-0.7,0.5-1.1c0.4-1,0.8-2,1.3-3l0.1-0.3h-12
	c-0.6,1.4-1.2,2.8-1.8,4.3c-0.6,1.4-1.2,2.8-1.7,4.2c-3.6,1.1-7.3,2.2-10.9,3.3l-0.3,0.1c-3.4,1.1-6.8,2.2-10.1,3.3L101.7,0H90.6
	c-1,6.4-2.2,12.8-3.4,19.2c-10.7,3.6-21.5,7.9-33,13.2c-8.4,3.9-28,14.3-30,26c-0.7,3.9,0.7,7.6,4,11c2.7,2.7,6.1,4.1,9.4,5.5
	l0.3,0.1c3.6,1.5,8.4,3.4,13.4,4.9c5.9,1.9,12.2,3.6,19.6,5.2c-4.3,13.7-8.8,26-13.7,37.6l-0.9,2.1c-0.9,2.1-1.9,4.3-2.8,6.4
	c-5.8,0.3-11.4,0.1-16.9-0.7c-9.3-1.5-16.4-5.7-21-12.5c-4.6-6.5-6.4-14.8-4.9-22.7c0.4-2-0.2-3.9-1.7-5.3c-1.6-1.4-3.9-2-5.8-1.3
	c-1.4,0.5-2.4,1.5-3,2.9v18.5c2.3,9.7,8,18.5,16.5,24.5c7.7,5.4,17.6,7.9,31,7.9c0.1,0,0.2,0,0.3,0l-4.6,9h12.4
	c1.6-3.1,3.2-6.4,4.8-9.5c2.1-0.2,4.1-0.4,6.1-0.6c1.9-0.2,3.7-0.4,5.5-0.5c2.2-0.2,4.5-0.4,6.5-0.6l-2.5,11.2h11.3
	c0.9-4.2,1.9-8.5,2.8-12.6c14.7-1.9,29.4-4.6,43.7-8l2.9-0.7c8.7-2.1,17.6-4.2,26-7.5c9.5-3.6,14.5-9.8,13.7-17
	c-0.6-6.4-5.8-11.6-15.2-14.8l0,0c-8.7-2.9-17.9-4.5-26.8-6.1l-0.9-0.2c-9.1-1.6-18.4-3-27.3-4.3l-0.1,0c6.5-20.9,14-42,22.2-62.7
	C146.3,12.3,165.9,6.9,190.1,0.9z M47.2,67c-0.7-0.3-1.6-0.6-2.5-0.8c-3.1-1-6.9-2.3-8.8-4.4c-0.5-0.5-0.6-1-0.6-1.7
	c0.2-2.2,3.4-4.9,5.2-6.4l0.4-0.3C53.3,43.1,69.7,37.2,84.5,32C81.5,46.3,78,60.7,74,74.6C64.9,72.7,55.9,70.1,47.2,67z M83.3,120.2
	c-0.4,1.6-0.8,3.1-1.2,4.7c-0.3,1.3-0.6,2.6-1,4c-3.8,0.4-8,0.9-12.2,1.2l-3.4,0.3c6.1-14.2,11.4-28.7,15.8-43l1,0.2
	c3.2,0.6,6.2,1.2,9.3,1.7C88.2,101.6,85.6,111.2,83.3,120.2z M107.7,91.7c8.9,1.4,18,2.8,27,4.4c1.7,0.3,3.4,0.6,5.2,0.9
	c7,1.2,14.2,2.5,20.4,5.3c1.6,0.8,5,2.4,5.3,4.5c0.4,2.5-3.2,4.2-5.9,5.3l0,0c-7.2,2.9-15,4.8-22.6,6.6c-1.8,0.4-3.5,0.8-5.3,1.3
	c-9.6,2.4-19.6,4.4-29.7,6c-3,0.5-6.1,1-9.1,1.4c3.3-13.4,6.5-25.3,9.8-36.5L107.7,91.7z M95,78.6c-3.4-0.6-6.9-1.2-10.2-1.8
	c4.2-14.6,8-30.6,11.7-48.9c7.2-2.4,13-4.3,18.3-6C107.7,40.1,101,59.1,95,78.6z"/>
</svg>
