<?xml version="1.0" encoding="utf-8"?>
<!-- Generator: Adobe Illustrator 25.0.1, SVG Export Plug-In . SVG Version: 6.00 Build 0)  -->
<svg version="1.1" id="레이어_1" xmlns="http://www.w3.org/2000/svg" xmlns:xlink="http://www.w3.org/1999/xlink" x="0px"
	 y="0px" viewBox="0 0 12 12" style="enable-background:new 0 0 12 12;" xml:space="preserve">
<style type="text/css">
	.st0{fill:#484F59;}
	.st1{fill:#F4F4F4;}
</style>
<circle class="st0" cx="6" cy="6" r="6"/>
<path class="st1" d="M8,6.1C7.8,5.8,7.6,5.7,7.3,5.5c-0.3-0.1-0.6-0.2-1-0.3c0,0,0,0,0,0c0,0,0,0,0,0c0,0,0,0,0,0c0,0,0,0,0,0
	C6,5.2,5.8,5.1,5.6,5.1S5.4,4.9,5.3,4.8S5.1,4.5,5.1,4.3v0c0-0.2,0.1-0.4,0.3-0.5c0.2-0.1,0.4-0.2,0.8-0.2c0.2,0,0.5,0,0.7,0.1
	S7.3,4,7.6,4.2l0.5-1.1C7.9,3,7.7,2.9,7.5,2.7C7.3,2.6,7,2.6,6.8,2.5c-0.1,0-0.1,0-0.2,0V1.7H5.4v0.8c-0.2,0-0.3,0.1-0.5,0.1
	C4.6,2.8,4.3,3.1,4.1,3.4S3.9,4,3.9,4.5v0C3.9,5,4,5.3,4.2,5.6C4.4,5.9,4.6,6,4.9,6.1c0.3,0.1,0.6,0.2,1,0.3c0,0,0,0,0,0s0,0,0,0
	c0,0,0,0,0,0c0,0,0,0,0,0c0.2,0,0.4,0.1,0.5,0.1c0.1,0,0.2,0.1,0.3,0.2C6.9,6.9,7,7,7,7.2v0c0,0.3-0.1,0.4-0.3,0.6
	C6.5,7.9,6.2,8,5.9,8C5.6,8,5.2,7.9,4.9,7.8C4.6,7.7,4.4,7.6,4.1,7.3l-0.6,1c0.1,0.1,0.3,0.3,0.5,0.4S4.6,9,5,9.1
	c0.1,0,0.3,0.1,0.4,0.1v0.8h1.2V9.1C6.8,9.1,7,9,7.1,9c0.4-0.2,0.6-0.4,0.8-0.7C8.1,8,8.2,7.6,8.2,7.2v0C8.2,6.7,8.1,6.4,8,6.1z"/>
</svg>
