<svg xmlns="http://www.w3.org/2000/svg" viewBox="0 0 36.89 40.33"><defs><style>.cls-1{fill:#323333;}.cls-2{fill:#f65e5d;}</style></defs><g id="레이어_2" data-name="레이어 2"><g id="레이어_1-2" data-name="레이어 1"><path class="cls-1" d="M36.57,25.85a18.42,18.42,0,0,0-4.21-9.42,2.43,2.43,0,0,0-1.77-.63,7.24,7.24,0,0,0-2.52.57l-.41-.8a6.22,6.22,0,0,0-2.14-3.14,2.63,2.63,0,0,0-1.34-.31,8.19,8.19,0,0,0-3.07.79A2.59,2.59,0,0,0,19,11.51a8.67,8.67,0,0,0-3.16.89l-.2-.46a.56.56,0,0,0-.05-.08A12.66,12.66,0,0,0,13.38,8a3.79,3.79,0,0,0-2.55-.84,3.49,3.49,0,0,0-3.78,3.66c0,.7,6.33,14.06,6.33,14.06a7.5,7.5,0,0,0-2.19-.32,6.26,6.26,0,0,0-2,.32c-2.11.7-3.52,4.21,0,7s11.25,8.44,11.25,8.44l16.16-7A20.93,20.93,0,0,0,36.57,25.85Zm-1.25,6.46L20.58,38.72C18.65,37.31,12.89,33.08,10,30.8a3.37,3.37,0,0,1-1.58-3.12A1.87,1.87,0,0,1,9.6,26.2,5,5,0,0,1,11.19,26a6.4,6.4,0,0,1,1.74.24l.14,0,3.38,2.71a.73.73,0,0,0,.44.15.7.7,0,0,0,.44-1.25l-1.21-1a.58.58,0,0,0-.07-.21L14.51,24c-2.71-5.73-5.66-12.14-6-13.32a2,2,0,0,1,.68-1.58,2.8,2.8,0,0,1,1.69-.51A2.42,2.42,0,0,1,12.38,9a12.17,12.17,0,0,1,2.08,3.88,1.41,1.41,0,0,0,.22.4l3,7a.69.69,0,0,0,.65.43.66.66,0,0,0,.27-.06.69.69,0,0,0,.37-.92l-2.55-6h0A7.14,7.14,0,0,1,19,12.91a.93.93,0,0,1,.62.33l2.95,7a.69.69,0,0,0,.65.43.66.66,0,0,0,.27-.06.69.69,0,0,0,.37-.92l-2.3-5.44a.85.85,0,0,0,.17-.06,6.72,6.72,0,0,1,2.45-.65,1.22,1.22,0,0,1,.64.13A3.42,3.42,0,0,1,25.9,15v.08l1.18,2.42h0l2.11,4.13a.7.7,0,0,0,.63.38.77.77,0,0,0,.32-.07.71.71,0,0,0,.3-.95l-1.74-3.4a5.69,5.69,0,0,1,1.88-.42,1.18,1.18,0,0,1,.77.21,17.11,17.11,0,0,1,3.82,8.64A21.87,21.87,0,0,1,35.32,32.31Z"/><line class="cls-1" x1="7.02" y1="16.35" x2="4.8" y2="19.1"/><path class="cls-2" d="M4.8,19.9a.8.8,0,0,1-.62-1.3l2.21-2.75a.81.81,0,0,1,1.13-.12.8.8,0,0,1,.12,1.12L5.42,19.6A.79.79,0,0,1,4.8,19.9Z"/><line class="cls-1" x1="4.8" y1="11.93" x2="0.8" y2="13.1"/><path class="cls-2" d="M.8,13.9a.8.8,0,0,1-.22-1.57l4-1.17A.8.8,0,1,1,5,12.7L1,13.87A.83.83,0,0,1,.8,13.9Z"/><line class="cls-1" x1="5.91" y1="7.56" x2="1.8" y2="4.68"/><path class="cls-2" d="M5.91,8.36a.81.81,0,0,1-.42-.12L1.39,5.37a.8.8,0,0,1-.27-1.1A.78.78,0,0,1,2.21,4L6.32,6.87a.8.8,0,0,1-.41,1.49Z"/><line class="cls-1" x1="9.2" y1="5.1" x2="7.42" y2="0.8"/><path class="cls-2" d="M9.2,5.9a.81.81,0,0,1-.78-.62L6.64,1A.8.8,0,0,1,8.2.62L10,4.92a.8.8,0,0,1-.6,1Z"/><line class="cls-1" x1="13.8" y1="5.1" x2="15.73" y2="2.67"/><path class="cls-2" d="M13.8,5.9a.86.86,0,0,1-.5-.17.82.82,0,0,1-.13-1.13L15.1,2.17a.8.8,0,1,1,1.25,1L14.43,5.6A.8.8,0,0,1,13.8,5.9Z"/><line class="cls-1" x1="15.73" y1="9.34" x2="18.8" y2="8.6"/><path class="cls-2" d="M15.73,10.14a.8.8,0,0,1-.19-1.57l3.07-.75A.8.8,0,1,1,19,9.38l-3.07.74A.65.65,0,0,1,15.73,10.14Z"/></g></g></svg>