<?xml version="1.0" encoding="utf-8"?>
<!-- Generator: Adobe Illustrator 25.0.1, SVG Export Plug-In . SVG Version: 6.00 Build 0)  -->
<svg version="1.1" id="레이어_1" xmlns="http://www.w3.org/2000/svg" xmlns:xlink="http://www.w3.org/1999/xlink" x="0px"
	 y="0px" viewBox="0 0 36.9 40.3" style="enable-background:new 0 0 36.9 40.3;" xml:space="preserve">
<style type="text/css">
	.st0{fill:#FFFFFF;}
	.st1{fill:#323333;}
	.st2{fill:none;}
	.st3{fill:#F65E5D;}
</style>
<path class="st0" d="M35.7,32.7l0.7-5.1l-2.7-7.4l-2-3.4l-3.3-0.2l-0.9,0.3l-1.3-2.1L25,13.3h-2.7l-1.4,0.6l-1.8-1.7l-2.6,0.3
	l-0.8,0.6L14.2,11l-2-2.8L9.6,7.8L8.3,9.2l-0.7,1.9c0,0,3.8,8.2,3.8,8.4s4.3,8.6,4.3,8.6l-3.3-2.4h-1.8l-2.2,0.9L8,27.8l0.9,2.6
	L13,34l7.8,5.5L35.7,32.7z"/>
<g id="레이어_2_1_">
	<g id="레이어_1-2">
		<path class="st1" d="M36.6,25.9c-0.5-3.5-1.9-6.7-4.2-9.4c-0.5-0.4-1.1-0.7-1.8-0.6c-0.9,0-1.7,0.2-2.5,0.6l-0.4-0.8
			c-0.4-1.2-1.1-2.3-2.1-3.1c-0.4-0.2-0.9-0.3-1.3-0.3c-1.1,0.1-2.1,0.3-3.1,0.8c-0.4-0.8-1.2-1.3-2.1-1.4c-1.1,0.1-2.2,0.4-3.2,0.9
			l-0.2-0.5c0,0,0-0.1-0.1-0.1c-0.5-1.4-1.3-2.7-2.2-3.9c-0.7-0.6-1.6-0.9-2.6-0.8C8.9,7,7.2,8.4,7.1,10.3c0,0.2,0,0.3,0,0.5
			c0,0.7,6.3,14.1,6.3,14.1c-0.7-0.2-1.4-0.3-2.2-0.3c-0.7,0-1.4,0.1-2,0.3c-2.1,0.7-3.5,4.2,0,7s11.2,8.4,11.2,8.4l16.2-7
			C37,30.8,37,28.3,36.6,25.9z M35.3,32.3l-14.7,6.4c-1.9-1.4-7.7-5.6-10.6-7.9c-1.1-0.7-1.7-1.9-1.6-3.1C8.5,27,9,26.4,9.6,26.2
			c0.5-0.2,1.1-0.2,1.6-0.2c0.6,0,1.2,0.1,1.7,0.2h0.1l3.4,2.7c0.1,0.1,0.3,0.1,0.4,0.1c0.4,0,0.7-0.3,0.7-0.7
			c0-0.2-0.1-0.4-0.3-0.6l-1.2-1c0-0.1,0-0.1-0.1-0.2L14.5,24c-2.7-5.7-5.7-12.1-6-13.3c0-0.6,0.2-1.2,0.7-1.6
			c0.5-0.3,1.1-0.5,1.7-0.5c0.5,0,1.1,0.1,1.5,0.4c0.9,1.2,1.6,2.5,2.1,3.9c0.1,0.1,0.1,0.3,0.2,0.4l3,7c0.1,0.3,0.4,0.4,0.6,0.4
			c0.1,0,0.2,0,0.3-0.1c0.4-0.1,0.5-0.5,0.4-0.9c0,0,0,0,0,0l-2.5-6l0,0c0.8-0.4,1.7-0.7,2.6-0.8c0.2,0,0.5,0.1,0.6,0.3l3,7
			c0.1,0.3,0.4,0.4,0.6,0.4c0.1,0,0.2,0,0.3-0.1c0.4-0.1,0.5-0.5,0.4-0.9c0,0,0,0,0,0l-2.3-5.4c0.1,0,0.1,0,0.2-0.1
			c0.8-0.4,1.6-0.6,2.5-0.6c0.2,0,0.4,0,0.6,0.1c0.5,0.3,0.8,0.8,1.1,1.3v0.1l1.2,2.4l0,0l2.1,4.1c0.1,0.2,0.4,0.4,0.6,0.4
			c0.1,0,0.2,0,0.3-0.1c0.3-0.2,0.5-0.6,0.3-1l-1.7-3.4c0.6-0.2,1.2-0.4,1.9-0.4c0.3,0,0.5,0.1,0.8,0.2c2.1,2.5,3.4,5.5,3.8,8.6
			C35.5,28.1,35.6,30.2,35.3,32.3z"/>
		<line class="st2" x1="7" y1="16.4" x2="4.8" y2="19.1"/>
		<path class="st3" d="M4.8,19.9c-0.4,0-0.8-0.4-0.8-0.8c0-0.2,0.1-0.4,0.2-0.5l2.2-2.8c0.3-0.3,0.8-0.4,1.1-0.1
			c0.3,0.3,0.4,0.8,0.1,1.1l-2.2,2.8C5.3,19.8,5,19.9,4.8,19.9z"/>
		<line class="st2" x1="4.8" y1="11.9" x2="0.8" y2="13.1"/>
		<path class="st3" d="M0.8,13.9c-0.4,0-0.8-0.4-0.8-0.8c0-0.4,0.2-0.7,0.6-0.8l4-1.2c0.4-0.1,0.9,0.1,1,0.5s-0.1,0.9-0.5,1
			c0,0-0.1,0-0.1,0l-4,1.2C0.9,13.9,0.9,13.9,0.8,13.9z"/>
		<line class="st2" x1="5.9" y1="7.6" x2="1.8" y2="4.7"/>
		<path class="st3" d="M5.9,8.4c-0.1,0-0.3,0-0.4-0.1L1.4,5.4C1,5.1,0.9,4.6,1.1,4.3c0,0,0,0,0,0C1.3,3.9,1.8,3.8,2.2,4c0,0,0,0,0,0
			l4.1,2.9C6.7,7.1,6.8,7.6,6.6,8C6.5,8.2,6.2,8.4,5.9,8.4z"/>
		<line class="st2" x1="9.2" y1="5.1" x2="7.4" y2="0.8"/>
		<path class="st3" d="M9.2,5.9c-0.4,0-0.7-0.3-0.8-0.6L6.6,1C6.5,0.6,6.8,0.1,7.2,0c0.4-0.1,0.9,0.2,1,0.6L10,4.9
			c0.1,0.4-0.1,0.9-0.6,1c0,0,0,0,0,0L9.2,5.9z"/>
		<line class="st2" x1="13.8" y1="5.1" x2="15.7" y2="2.7"/>
		<path class="st3" d="M13.8,5.9c-0.2,0-0.4-0.1-0.5-0.2C13,5.4,12.9,5,13.2,4.6l1.9-2.4c0.3-0.3,0.8-0.4,1.1-0.1
			c0.3,0.3,0.4,0.8,0.1,1.1l0,0l-1.9,2.4C14.3,5.8,14,5.9,13.8,5.9z"/>
		<line class="st2" x1="15.7" y1="9.3" x2="18.8" y2="8.6"/>
		<path class="st3" d="M15.7,10.1c-0.4,0-0.8-0.4-0.8-0.8c0-0.3,0.2-0.7,0.6-0.7l3.1-0.8c0.4-0.1,0.9,0.2,1,0.6
			c0.1,0.4-0.2,0.9-0.6,1l-3.1,0.7C15.9,10.1,15.8,10.1,15.7,10.1z"/>
	</g>
</g>
</svg>
