<svg xmlns="http://www.w3.org/2000/svg" viewBox="0 0 42.02 47.16"><defs><style>.cls-1{fill:#f65e5d;}.cls-2{fill:#323333;}</style></defs><g id="레이어_2" data-name="레이어 2"><g id="레이어_1-2" data-name="레이어 1"><path class="cls-1" d="M1.86,10.9A7.74,7.74,0,1,1,17.06,8a7.15,7.15,0,0,1,.13,1.52l1.72,0a9,9,0,0,0-.16-1.86A9.46,9.46,0,1,0,6.19,18.32l.59-1.61A7.74,7.74,0,0,1,1.86,10.9Z"/><path class="cls-2" d="M41.65,30.25c-.82-5.25-3.28-9.35-4.92-11a2.82,2.82,0,0,0-2.06-.73,8.07,8.07,0,0,0-2.94.67l-.48-.94c-.42-1.15-1.26-3-2.5-3.67a3,3,0,0,0-1.56-.36,9.32,9.32,0,0,0-3.59.93,3,3,0,0,0-2.46-1.64,10,10,0,0,0-3.69,1L17.22,14s0-.06-.06-.1a14.59,14.59,0,0,0-2.58-4.51,4.37,4.37,0,0,0-3-1c-2.11,0-4.42,1.15-4.42,4.27,0,.82,7.39,16.41,7.39,16.41A8.86,8.86,0,0,0,12,28.74a7.38,7.38,0,0,0-2.37.37c-2.46.82-4.1,4.92,0,8.2s13.13,9.85,13.13,9.85L41.65,39A24.7,24.7,0,0,0,41.65,30.25ZM40.19,37.8,23,45.28C20.73,43.63,14,38.7,10.68,36c-1.41-1.13-2.06-2.42-1.84-3.64a2.19,2.19,0,0,1,1.33-1.73A6,6,0,0,1,12,30.38a7.52,7.52,0,0,1,2,.28.76.76,0,0,0,.16,0l4,3.16a.81.81,0,0,0,.51.18.82.82,0,0,0,.64-.31.81.81,0,0,0-.13-1.15l-1.41-1.13a1,1,0,0,0-.08-.25l-1.8-3.13C12.73,21.37,9.3,13.9,8.84,12.52a2.32,2.32,0,0,1,.8-1.85,3.19,3.19,0,0,1,2-.6,2.93,2.93,0,0,1,1.81.5,14.45,14.45,0,0,1,2.42,4.54,1.61,1.61,0,0,0,.26.46l3.47,8.11a.8.8,0,0,0,.75.5.87.87,0,0,0,.32-.06A.83.83,0,0,0,21.08,23l-3-7,0,0a8.53,8.53,0,0,1,3-.89,1.08,1.08,0,0,1,.72.37l3.45,8.15a.8.8,0,0,0,.75.5.87.87,0,0,0,.32-.06A.82.82,0,0,0,26.82,23L24.13,16.7l.2-.07a7.8,7.8,0,0,1,2.86-.76,1.59,1.59,0,0,1,.74.14,4.09,4.09,0,0,1,1.26,1.62s0,.06,0,.09l1.37,2.83h0l2.47,4.82a.81.81,0,0,0,.73.44.72.72,0,0,0,.37-.09.82.82,0,0,0,.36-1.1l-2-4a6.51,6.51,0,0,1,2.19-.49,1.4,1.4,0,0,1,.9.25A20.09,20.09,0,0,1,40,30.5,25.6,25.6,0,0,1,40.19,37.8Z"/></g></g></svg>