<?xml version="1.0" encoding="utf-8"?>
<!-- Generator: Adobe Illustrator 25.0.1, SVG Export Plug-In . SVG Version: 6.00 Build 0)  -->
<svg version="1.1" id="레이어_1" xmlns="http://www.w3.org/2000/svg" xmlns:xlink="http://www.w3.org/1999/xlink" x="0px"
	 y="0px" viewBox="0 0 46 46" style="enable-background:new 0 0 46 46;" xml:space="preserve">
<style type="text/css">
	.st0{fill:#FDFDFD;fill-opacity:0;}
	.st1{fill:#FFFFFF;}
</style>
<g>
	<g id="레이어_2_1_">
		<g id="레이어_1-2">
			<circle class="st0" cx="23" cy="23" r="23"/>
			
				<image style="overflow:visible;opacity:0.14;enable-background:new    ;" width="26" height="26" xlink:href="DFE075A6.png"  transform="matrix(1 0 0 1 10 10)">
			</image>
			<path class="st1" d="M25.2,23l7.3-7.3c0.6-0.7,0.5-1.6-0.2-2.2c-0.6-0.5-1.5-0.5-2,0L23,20.8l-7.3-7.3C15,12.9,14,13,13.5,13.6
				c-0.5,0.6-0.5,1.5,0,2l7.3,7.3l-7.3,7.3C12.9,31,13,32,13.6,32.5c0.6,0.5,1.5,0.5,2,0l7.3-7.3l7.3,7.3c0.7,0.6,1.6,0.5,2.2-0.2
				c0.5-0.6,0.5-1.5,0-2L25.2,23z"/>
		</g>
	</g>
</g>
</svg>
